<svg width="569" height="507" viewBox="0 0 569 507" fill="none" xmlns="http://www.w3.org/2000/svg">
<path opacity="0.3" d="M170.418 506.625C160.09 506.625 150.7 504.169 142.25 499.256C133.799 494.344 126.992 487.425 121.828 478.5L7.74629 281.625C2.58209 272.719 0 263.344 0 253.5C0 243.656 2.58209 234.281 7.74629 225.375L121.828 28.5C126.992 19.5938 133.799 12.6844 142.25 7.77188C150.7 2.85938 160.09 0.39375 170.418 0.375H398.582C408.91 0.375 418.299 2.84063 426.75 7.77188C435.2 12.7031 442.008 19.6125 447.172 28.5L561.254 225.375C566.418 234.281 569 243.656 569 253.5C569 263.344 566.418 272.719 561.254 281.625L447.172 478.5C442.008 487.406 435.2 494.325 426.75 499.256C418.299 504.188 408.91 506.644 398.582 506.625H170.418Z" fill="#181818"/>
</svg>
